<?xml version="1.0" standalone="no"?><!DOCTYPE svg PUBLIC "-//W3C//DTD SVG 1.1//EN" "http://www.w3.org/Graphics/SVG/1.1/DTD/svg11.dtd"><svg t="1587394321390" class="icon" viewBox="0 0 1024 1024" version="1.1" xmlns="http://www.w3.org/2000/svg" p-id="3813" xmlns:xlink="http://www.w3.org/1999/xlink" width="200" height="200"><defs><style type="text/css"></style></defs><path d="M160 32c-12 0-24.8 4.8-33.6 14.4S112 68 112 80v864c0 12 4.8 24.8 14.4 33.6 9.6 9.6 21.6 14.4 33.6 14.4h704c12 0 24.8-4.8 33.6-14.4 9.6-9.6 14.4-21.6 14.4-33.6V304L640 32H160z" fill="#5ACC9B" p-id="3814"></path><path d="M912 304H688c-12 0-24.8-4.8-33.6-14.4-9.6-8.8-14.4-21.6-14.4-33.6V32l272 272z" fill="#BDEBD7" p-id="3815"></path><path d="M500.8 684.8c3.2 2.4 6.4 4.8 11.2 4.8 4 0 8-1.6 11.2-4.8l142.4-136c2.4-2.4 3.2-5.6 1.6-8.8-1.6-3.2-4-4.8-7.2-4.8H576v-136c0-4-1.6-8-4.8-11.2-3.2-3.2-7.2-4.8-11.2-4.8H464c-4 0-8 1.6-11.2 4.8-3.2 3.2-4.8 7.2-4.8 11.2v136H364c-3.2 0-6.4 1.6-7.2 4.8-1.6 3.2 0 6.4 1.6 8.8l142.4 136zM712 751.2H312c-8.8 0-16 7.2-16 16s7.2 16 16 16h400c8.8 0 16-7.2 16-16s-7.2-16-16-16z" fill="#FFFFFF" p-id="3816"></path></svg>