<?xml version="1.0" standalone="no"?><!DOCTYPE svg PUBLIC "-//W3C//DTD SVG 1.1//EN" "http://www.w3.org/Graphics/SVG/1.1/DTD/svg11.dtd"><svg t="1589207213800" class="icon" viewBox="0 0 1024 1024" version="1.1" xmlns="http://www.w3.org/2000/svg" p-id="3601" xmlns:xlink="http://www.w3.org/1999/xlink" width="200" height="200"><defs><style type="text/css"></style></defs><path d="M676.297143 0H145.609143C130.834286 0 118.857143 11.977143 118.857143 35.218286V1005.714286c0 6.308571 11.977143 18.285714 26.752 18.285714h732.781714c14.774857 0 26.752-11.977143 26.752-18.285714V237.312c0-12.726857-1.700571-16.822857-4.699428-19.84L687.670857 4.699429A16.164571 16.164571 0 0 0 676.297143 0z" fill="#E9E9E0" p-id="3602"></path><path d="M685.714286 2.761143V219.428571h216.667428z" fill="#D9D7CA" p-id="3603"></path><path d="M878.390857 1024H145.609143A26.752 26.752 0 0 1 118.857143 997.248V713.142857h786.285714v284.105143c0 14.774857-11.977143 26.752-26.752 26.752z" fill="#9777A8" p-id="3604"></path><path d="M312.356571 807.643429v58.002285h77.001143v20.498286h-77.001143v60.251429h84.754286V969.142857h-115.254857V784.896h115.254857v22.747429h-84.754286zM522.605714 879.634286L569.362286 969.142857h-34.742857l-29.257143-69.504H502.857143L471.350857 969.142857h-34.742857l46.756571-89.508571-49.755428-94.756572h34.249143l32.493714 75.008h2.505143l35.254857-75.008h34.249143l-49.755429 94.756572zM644.864 807.643429v58.002285h77.001143v20.498286h-77.001143v60.251429H729.6V969.142857h-115.254857V784.896H729.6v22.747429h-84.736z" fill="#FFFFFF" p-id="3605"></path><path d="M612.571429 585.142857a18.304 18.304 0 0 1-17.462858-23.753143l91.428572-292.571428a18.285714 18.285714 0 0 1 34.907428 10.916571l-91.428571 292.571429A18.285714 18.285714 0 0 1 612.571429 585.142857z" fill="#9777A8" p-id="3606"></path><path d="M530.285714 356.571429m-27.428571 0a27.428571 27.428571 0 1 0 54.857143 0 27.428571 27.428571 0 1 0-54.857143 0Z" fill="#9777A8" p-id="3607"></path><path d="M530.285714 484.571429m-27.428571 0a27.428571 27.428571 0 1 0 54.857143 0 27.428571 27.428571 0 1 0-54.857143 0Z" fill="#9777A8" p-id="3608"></path><path d="M429.714286 548.571429h-36.571429c-70.582857 0-128-57.417143-128-128s57.417143-128 128-128h36.571429a18.285714 18.285714 0 0 1 0 36.571428h-36.571429c-50.413714 0-91.428571 41.014857-91.428571 91.428572s41.014857 91.428571 91.428571 91.428571h36.571429a18.285714 18.285714 0 0 1 0 36.571429z" fill="#9777A8" p-id="3609"></path></svg>