<?xml version="1.0" standalone="no"?><!DOCTYPE svg PUBLIC "-//W3C//DTD SVG 1.1//EN" "http://www.w3.org/Graphics/SVG/1.1/DTD/svg11.dtd"><svg t="1587394290511" class="icon" viewBox="0 0 1024 1024" version="1.1" xmlns="http://www.w3.org/2000/svg" p-id="2741" xmlns:xlink="http://www.w3.org/1999/xlink" width="200" height="200"><defs><style type="text/css"></style></defs><path d="M985.6 246.4c-9.6-9.6-21.6-14.4-33.6-14.4H480L374.4 126.4c-4-4-9.6-8-15.2-10.4-6.4-2.4-12-4-18.4-4H88c-12 0-24.8 4.8-33.6 14.4S40 148 40 160v280h960V280c0-12-4.8-24.8-14.4-33.6z" fill="#FFD766" p-id="2742"></path><path d="M952 920H88c-26.4 0-48-21.6-48-48V360h960v512c0 26.4-21.6 48-48 48z" fill="#FFAC33" p-id="2743"></path><path d="M728 808.8c0 10.4-8 18.4-18.4 18.4H346.4c-10.4 0-18.4-8-18.4-18.4 0 0 0-68 49.6-92.8 32-16 19.2-3.2 58.4-19.2 38.4-16 48-21.6 48-21.6v-36.8s-14.4-11.2-19.2-45.6c-8.8 2.4-12-10.4-12.8-19.2-0.8-8-5.6-33.6 5.6-31.2-2.4-16.8-4-32.8-3.2-40.8 2.4-28.8 30.4-58.4 72.8-60.8 49.6 2.4 69.6 32 72.8 60.8 0.8 8-0.8 23.2-3.2 40.8 11.2-2.4 6.4 23.2 5.6 31.2-0.8 8.8-3.2 21.6-12.8 19.2-4.8 35.2-19.2 45.6-19.2 45.6v36.8s8.8 5.6 48 21.6c38.4 16 26.4 4 58.4 20 51.2 23.2 51.2 92 51.2 92z" fill="#FFDCB3" p-id="2744"></path></svg>