<?xml version="1.0" standalone="no"?><!DOCTYPE svg PUBLIC "-//W3C//DTD SVG 1.1//EN" "http://www.w3.org/Graphics/SVG/1.1/DTD/svg11.dtd"><svg t="1587394297631" class="icon" viewBox="0 0 1024 1024" version="1.1" xmlns="http://www.w3.org/2000/svg" p-id="3008" xmlns:xlink="http://www.w3.org/1999/xlink" width="200" height="200"><defs><style type="text/css"></style></defs><path d="M985.6 246.4c-9.6-9.6-21.6-14.4-33.6-14.4H480L374.4 126.4c-4-4-9.6-8-15.2-10.4-6.4-2.4-12-4-18.4-4H88c-12 0-24.8 4.8-33.6 14.4S40 148 40 160v280h960V280c0-12-4.8-24.8-14.4-33.6z" fill="#FFD766" p-id="3009"></path><path d="M952 920H88c-26.4 0-48-21.6-48-48V360h960v512c0 26.4-21.6 48-48 48z" fill="#FFAC33" p-id="3010"></path><path d="M664 736c-19.2 0-36.8 8.8-48 22.4L406.4 653.6c0.8-4 1.6-8.8 1.6-13.6s-0.8-8.8-1.6-13.6L616 521.6c12 13.6 28.8 22.4 48 22.4 35.2 0 64-28.8 64-64s-28.8-64-64-64-64 28.8-64 64c0 4.8 0.8 8.8 1.6 13.6L392 598.4c-12-13.6-28.8-22.4-48-22.4-35.2 0-64 28.8-64 64s28.8 64 64 64c19.2 0 36.8-8.8 48-22.4l209.6 104.8c-0.8 4-1.6 8.8-1.6 13.6 0 35.2 28.8 64 64 64s64-28.8 64-64-28.8-64-64-64z" fill="#FFDCB3" p-id="3011"></path></svg>