<?xml version="1.0" standalone="no"?><!DOCTYPE svg PUBLIC "-//W3C//DTD SVG 1.1//EN" "http://www.w3.org/Graphics/SVG/1.1/DTD/svg11.dtd"><svg t="1587394260720" class="icon" viewBox="0 0 1024 1024" version="1.1" xmlns="http://www.w3.org/2000/svg" p-id="1791" xmlns:xlink="http://www.w3.org/1999/xlink" width="200" height="200"><defs><style type="text/css"></style></defs><path d="M80 34.4h864v960H80z" fill="#8095FF" p-id="1792"></path><path d="M176 112m-40 0a40 40 0 1 0 80 0 40 40 0 1 0-80 0Z" fill="#FFFFFF" p-id="1793"></path><path d="M176 272m-40 0a40 40 0 1 0 80 0 40 40 0 1 0-80 0Z" fill="#FFFFFF" p-id="1794"></path><path d="M176 432m-40 0a40 40 0 1 0 80 0 40 40 0 1 0-80 0Z" fill="#FFFFFF" p-id="1795"></path><path d="M176 592m-40 0a40 40 0 1 0 80 0 40 40 0 1 0-80 0Z" fill="#FFFFFF" p-id="1796"></path><path d="M176 752m-40 0a40 40 0 1 0 80 0 40 40 0 1 0-80 0Z" fill="#FFFFFF" p-id="1797"></path><path d="M176 912m-40 0a40 40 0 1 0 80 0 40 40 0 1 0-80 0Z" fill="#FFFFFF" p-id="1798"></path><path d="M864 112m-40 0a40 40 0 1 0 80 0 40 40 0 1 0-80 0Z" fill="#FFFFFF" p-id="1799"></path><path d="M864 272m-40 0a40 40 0 1 0 80 0 40 40 0 1 0-80 0Z" fill="#FFFFFF" p-id="1800"></path><path d="M864 432m-40 0a40 40 0 1 0 80 0 40 40 0 1 0-80 0Z" fill="#FFFFFF" p-id="1801"></path><path d="M864 592m-40 0a40 40 0 1 0 80 0 40 40 0 1 0-80 0Z" fill="#FFFFFF" p-id="1802"></path><path d="M864 752m-40 0a40 40 0 1 0 80 0 40 40 0 1 0-80 0Z" fill="#FFFFFF" p-id="1803"></path><path d="M864 912m-40 0a40 40 0 1 0 80 0 40 40 0 1 0-80 0Z" fill="#FFFFFF" p-id="1804"></path><path d="M648 508L436 362.4c-4.8-3.2-11.2-4-16.8-0.8-5.6 3.2-8.8 8.8-8.8 14.4v290.4c0 5.6 3.2 11.2 8.8 14.4 5.6 3.2 12 2.4 16.8-0.8L648 533.6c4.8-2.4 7.2-8 7.2-12.8 0-4.8-3.2-9.6-7.2-12.8z" fill="#FFFFFF" p-id="1805"></path></svg>